<svg xmlns="http://www.w3.org/2000/svg" width="18.256" height="20.157" viewBox="0 0 18.256 20.157">
  <path id="Icon_ionic-md-share" data-name="Icon ionic-md-share" d="M19.7,17.376a2.771,2.771,0,0,0-1.983.76l-7.272-4.2a3.406,3.406,0,0,0,.1-.709,3.4,3.4,0,0,0-.1-.709l7.17-4.153a3.043,3.043,0,1,0-.966-2.229,3.385,3.385,0,0,0,.1.709l-7.17,4.153a3.061,3.061,0,0,0-2.085-.81,3.011,3.011,0,0,0-3,3.039,3.061,3.061,0,0,0,5.136,2.229l7.221,4.2a2.541,2.541,0,0,0-.1.658A2.949,2.949,0,1,0,19.7,17.376Z" transform="translate(-4.5 -3.094)" fill="#45c0be"/>
</svg>
