<svg xmlns="http://www.w3.org/2000/svg" width="25" height="25" viewBox="0 0 25 25">
  <g id="Group_437" data-name="Group 437" transform="translate(2540 -850)">
    <rect id="Rectangle_114" data-name="Rectangle 114" width="25" height="25" transform="translate(-2540 850)" fill="none"/>
    <path id="Icon_awesome-shopping-basket" data-name="Icon awesome-shopping-basket" d="M19.556,8.5V9.04a.815.815,0,0,1-.815.815H18.47l-.887,6.206a1.63,1.63,0,0,1-1.613,1.4H3.586a1.63,1.63,0,0,1-1.613-1.4L1.086,9.855H.815A.815.815,0,0,1,0,9.04V8.5a.815.815,0,0,1,.815-.815H3.1L6.727,2.7A1.086,1.086,0,1,1,8.484,3.975l-2.7,3.707h7.98l-2.7-3.707A1.086,1.086,0,0,1,12.83,2.7l3.625,4.985h2.286A.815.815,0,0,1,19.556,8.5Zm-8.963,5.976v-3.8a.815.815,0,1,0-1.63,0v3.8a.815.815,0,1,0,1.63,0Zm3.8,0v-3.8a.815.815,0,0,0-1.63,0v3.8a.815.815,0,1,0,1.63,0Zm-7.605,0v-3.8a.815.815,0,0,0-1.63,0v3.8a.815.815,0,0,0,1.63,0Z" transform="translate(-2537 852.75)" fill="#45c0be"/>
  </g>
</svg>
