<?xml version="1.0" encoding="UTF-8"?>
<svg id="Layer_2" data-name="Layer 2" xmlns="http://www.w3.org/2000/svg" viewBox="0 0 16 15.97">
  <defs>
    <style>
      .cls-1 {
        fill: #00adb5;
      }
    </style>
  </defs>
  <g id="Layer_1-2" data-name="Layer 1">
    <g>
      <path class="cls-1" d="m16,14.22v.41c-.09.23-.15.49-.29.7-.52.76-1.63.87-2.3.23-.59-.56-1.15-1.14-1.73-1.72-.51-.51-.65-1.09-.38-1.77.01-.04.01-.1,0-.12-.32-.33-.65-.66-.98-.99-.19.14-.36.29-.55.41-.87.59-1.82.94-2.86,1.05-.89.09-1.76.01-2.6-.27-1.5-.51-2.67-1.44-3.47-2.82C.07,7.99-.16,6.55.11,5.04c.18-.99.59-1.88,1.21-2.67C2.19,1.27,3.31.53,4.67.18c.27-.07.56-.12.84-.18.5,0,1,0,1.5,0,.15.03.29.05.44.08.75.15,1.45.43,2.1.83.95.59,1.69,1.38,2.21,2.37.6,1.14.83,2.35.69,3.63-.13,1.14-.54,2.16-1.23,3.07-.07.1-.15.19-.23.3.33.33.65.65.97.96.03.03.1.04.14.03.68-.26,1.27-.12,1.78.39.46.46.91.93,1.38,1.38.35.33.65.68.75,1.17Zm-7.97-8.01c0,.48,0,.97,0,1.45,0,.33.19.52.52.53.3,0,.6,0,.91,0,1.02-.02,1.58-1.03,1.05-1.89-.05-.07-.03-.12.01-.18.51-.8-.03-1.83-.98-1.87-.32-.01-.65,0-.97,0-.38,0-.55.18-.55.56,0,.47,0,.94,0,1.41Zm-.55.15c-.02-.44,0-.74-.06-1.04-.11-.66-.74-1.11-1.44-1.07-.63.04-1.18.6-1.21,1.24-.02.48-.02.97,0,1.45.02.56.47,1.18,1.26,1.24.56.04,1.16-.29,1.33-.91.09-.33.09-.7.11-.91Zm-3.29-.47s0,0,0,0c0-.4,0-.79,0-1.19,0-.26-.19-.45-.44-.45-.35,0-.7,0-1.05,0-.25,0-.44.21-.44.46,0,.25.17.44.42.46.15.01.29.01.44,0,.12,0,.15.04.15.15,0,.52,0,1.03,0,1.55,0,.06,0,.14-.03.18-.06.08-.14.16-.24.19-.12.04-.22-.04-.28-.15-.03-.05-.03-.12-.04-.18-.03-.22-.2-.38-.41-.41-.2-.02-.42.1-.48.3-.03.1-.03.22-.02.32.07.61.59,1.09,1.24,1.06.71-.04,1.17-.55,1.18-1.26,0-.34,0-.69,0-1.03Z"/>
      <path class="cls-1" d="m8.98,5.75v-.57c.19,0,.37-.01.56,0,.17.02.26.14.25.3,0,.15-.11.26-.28.27-.17,0-.34,0-.53,0Z"/>
      <path class="cls-1" d="m8.98,6.69c.19,0,.37,0,.55,0,.16,0,.26.12.26.27,0,.15-.11.28-.27.29-.18,0-.35,0-.54,0v-.56Z"/>
      <path class="cls-1" d="m6.53,6.22c0,.2,0,.4,0,.59,0,.24-.17.43-.39.44-.23,0-.42-.16-.43-.4-.01-.42-.01-.84,0-1.26,0-.25.2-.42.42-.41.22,0,.39.19.4.44,0,.2,0,.41,0,.61Z"/>
    </g>
  </g>
</svg>