<?xml version="1.0" encoding="UTF-8"?>
<svg id="Layer_2" data-name="Layer 2" xmlns="http://www.w3.org/2000/svg" viewBox="0 0 16 14.07">
  <defs>
    <style>
      .cls-1 {
        fill: #00adb5;
      }
    </style>
  </defs>
  <g id="Layer_1-2" data-name="Layer 1">
    <path class="cls-1" d="m0,.35C.12.09.31,0,.6,0c.88.01,1.75,0,2.63,0,.34,0,.49.12.57.45.11.47.21.93.32,1.42.06,0,.13,0,.19,0,3.71,0,7.42,0,11.13,0,.38,0,.66.27.54.7-.61,2.11-1.21,4.22-1.81,6.34-.11.37-.24.47-.63.47-2.74,0-5.47,0-8.21,0-.09,0-.19,0-.28.03-.19.05-.32.24-.32.43,0,.2.13.39.33.44.09.02.18.03.28.03,2.76,0,5.52,0,8.28,0,.3,0,.51.18.52.45,0,.27-.19.48-.46.49-.23,0-.46,0-.69,0,.17.08.36.13.51.23.15.11.3.25.4.4.1.15.17.34.2.51.03.19.03.39,0,.57-.15.67-.77,1.12-1.44,1.09-.68-.04-1.24-.57-1.32-1.26-.06-.57.24-1.31,1.17-1.55h-6.12c.37.09.68.29.9.61.22.32.29.68.22,1.07-.12.65-.73,1.14-1.4,1.13-.69-.01-1.26-.52-1.37-1.2-.11-.73.31-1.32,1.17-1.61-.24,0-.45,0-.65,0-.71,0-1.26-.41-1.43-1.07-.16-.62.14-1.26.75-1.59.01,0,.03-.02.05-.03-.56-2.53-1.13-5.07-1.69-7.62-.49,0-.98,0-1.46,0-.29,0-.57-.01-.86,0-.29.02-.49-.08-.61-.35v-.25Z"/>
  </g>
</svg>