<svg xmlns="http://www.w3.org/2000/svg" width="12.735" height="12.735" viewBox="0 0 12.735 12.735">
  <path id="Icon_awesome-link" data-name="Icon awesome-link" d="M8.124,4.611a3.779,3.779,0,0,1,.009,5.338l-.009.009L6.452,11.629A3.781,3.781,0,0,1,1.106,6.283l.923-.923a.4.4,0,0,1,.679.264,4.583,4.583,0,0,0,.241,1.311.4.4,0,0,1-.094.413l-.326.326a1.791,1.791,0,1,0,2.516,2.549L6.717,8.551a1.79,1.79,0,0,0,0-2.533,1.863,1.863,0,0,0-.257-.213.4.4,0,0,1-.173-.314.991.991,0,0,1,.291-.741L7.1,4.227a.4.4,0,0,1,.512-.043,3.793,3.793,0,0,1,.51.428Zm3.505-3.506a3.785,3.785,0,0,0-5.347,0L4.611,2.777,4.6,2.786a3.781,3.781,0,0,0,.519,5.765.4.4,0,0,0,.512-.043l.524-.524a.991.991,0,0,0,.291-.741.4.4,0,0,0-.173-.314,1.863,1.863,0,0,1-.257-.213,1.79,1.79,0,0,1,0-2.533L7.69,2.513a1.791,1.791,0,1,1,2.516,2.549l-.326.326a.4.4,0,0,0-.094.413,4.583,4.583,0,0,1,.241,1.311.4.4,0,0,0,.679.264l.923-.923a3.785,3.785,0,0,0,0-5.347Z" transform="translate(0 0)" fill="#fff"/>
</svg>
