<?xml version="1.0" encoding="UTF-8"?>
<svg id="Layer_2" data-name="Layer 2" xmlns="http://www.w3.org/2000/svg" viewBox="0 0 14.41 13.06">
  <defs>
    <style>
      .cls-1 {
        fill: #00adb5;
      }
    </style>
  </defs>
  <g id="Layer_1-2" data-name="Layer 1">
    <g>
      <path class="cls-1" d="m0,.64c.52.15,1.03.3,1.55.45.44.13.88.25,1.32.37.12.03.15.08.15.2,0,1.91,0,3.83,0,5.74,0,1.82,0,3.65,0,5.47v.18H0C0,8.92,0,4.78,0,.64Zm1.1,5.57h.82v-.82h-.82v.82Zm.82,1.09h-.81v.83h.81v-.83Zm-.82,1.91v.82h.82v-.82h-.82Zm.82-4.9v-.81h-.82v.81h.82Z"/>
      <path class="cls-1" d="m3.95,0h6.61v13.05h-1.24v-3.14h-4.22v3.15h-1.15V0Zm5.37,1.57h-.83v1.77h.83v-1.77Zm-4.22,2.63v1.78h.83v-1.78h-.83Zm2.52,1.79v-1.78h-.82v1.78h.82Zm.86-1.78v1.78h.83v-1.78h-.83Zm-1.69-2.63v1.77h.83v-1.77h-.83Zm-.86,1.78v-1.78h-.83v1.78h.83Zm-.84,5.27h.83v-1.77h-.83v1.77Zm2.52,0v-1.77h-.83v1.77h.83Zm1.69-1.77h-.83v1.77h.83v-1.77Z"/>
      <path class="cls-1" d="m11.42,3.65h2.99v9.41h-2.99V3.65Zm1.92,3.64h-.82v.83h.82v-.83Zm-.84-1.91v.83h.82v-.83h-.82Zm0,4.64h.82v-.82h-.82v.82Z"/>
      <path class="cls-1" d="m11.42,2.79c0-.43,0-.86,0-1.28,0-.03.07-.07.11-.08.22,0,.44,0,.66,0,.69,0,1.37,0,2.06,0h.16v1.36h-2.99Z"/>
      <path class="cls-1" d="m7.64,13.05v-2.31h.83v2.31h-.83Z"/>
      <path class="cls-1" d="m5.95,10.75h.83v2.31h-.83v-2.31Z"/>
    </g>
  </g>
</svg>