<?xml version="1.0" encoding="UTF-8"?>
<svg id="Layer_2" data-name="Layer 2" xmlns="http://www.w3.org/2000/svg" viewBox="0 0 16 22.85">
  <defs>
    <style>
      .cls-1 {
        fill: #00adb5;
      }
    </style>
  </defs>
  <g id="Layer_1-2" data-name="Layer 1">
    <g>
      <path class="cls-1" d="m11.88,0c.26.06.52.11.77.18,2.15.61,3.56,2.77,3.32,4.99-.22,2-1.13,3.65-2.39,5.15-.21.25-.43.49-.66.73-.06.06-.16.11-.24.11-.61-.06-1.22-.14-1.83-.23-.05,0-.11-.14-.11-.21,0-.79,0-1.58,0-2.37-.02-1.36-.91-2.45-2.23-2.75-1.65-.37-3.33.92-3.36,2.6-.03,1.47,0,2.95,0,4.42,0,.08,0,.16,0,.3-.13-.11-.23-.18-.32-.26-1.31-1.09-2.51-2.28-3.43-3.73C.51,7.58-.02,6.13,0,4.5.02,2.41,1.62.48,3.68.09,3.82.06,3.97.03,4.11,0c.34,0,.68,0,1.03,0,.03.01.07.04.1.04.88.11,1.65.45,2.33,1.02.15.12.29.25.43.38.04-.04.08-.07.11-.1.63-.62,1.37-1.03,2.23-1.23C10.51.07,10.68.04,10.85,0c.34,0,.68,0,1.03,0Z"/>
      <path class="cls-1" d="m9.41,12.1c.99.12,1.96.24,2.92.37.59.07,1.18.14,1.77.23.67.1,1.19.71,1.2,1.44.01,1.99,0,3.99,0,5.98,0,.01,0,.03-.02.06H6.46c0-.06-.02-.12-.01-.18.08-.4-.12-.64-.42-.89-1.01-.82-2-1.67-3-2.5-.48-.4-.67-.93-.49-1.47.2-.61.64-.93,1.26-1.02.5-.07.94.06,1.32.39.42.36.85.71,1.33,1.11,0-.13,0-.21,0-.3,0-2.28,0-4.57,0-6.85,0-.77.42-1.35,1.08-1.54.97-.26,1.87.44,1.88,1.49,0,1.13,0,2.26,0,3.39,0,.09,0,.18,0,.29Z"/>
      <path class="cls-1" d="m6.46,22.85v-1.31h8.83v1.31H6.46Z"/>
    </g>
  </g>
</svg>