<?xml version="1.0" encoding="UTF-8"?>
<svg id="Layer_2" data-name="Layer 2" xmlns="http://www.w3.org/2000/svg" viewBox="0 0 16 13.18">
  <defs>
    <style>
      .cls-1 {
        fill: #00adb5;
      }
    </style>
  </defs>
  <g id="Layer_1-2" data-name="Layer 1">
    <g>
      <path class="cls-1" d="m0,8.06c.05-.07.08-.12.11-.17.83-1.24,1.65-2.48,2.48-3.72.07-.1.14-.14.26-.14,3.44,0,6.88,0,10.31,0,.1,0,.17,0,.24.1.85,1.28,1.7,2.56,2.55,3.83.02.02.03.05.05.09-.06,0-.11.01-.15.01-1.99,0-3.97,0-5.96,0-.11,0-.17-.04-.23-.12-.51-.78-1.03-1.55-1.55-2.32-.03-.05-.07-.1-.11-.16-.04.06-.08.11-.11.16-.52.77-1.03,1.55-1.55,2.32-.05.08-.1.13-.21.13-2.01,0-4.03,0-6.04,0-.02,0-.04,0-.09,0Z"/>
      <path class="cls-1" d="m7.49,13.18H2.46v-4.1c.06,0,.12,0,.19,0,1.33,0,2.66,0,3.98,0,.11,0,.18-.03.24-.13.19-.3.39-.59.61-.92v5.14Z"/>
      <path class="cls-1" d="m8.52,13.17v-5.14c.2.31.4.57.56.85.09.16.2.2.38.2,1.29,0,2.58,0,3.87,0h.22v4.09h-5.02Z"/>
      <path class="cls-1" d="m6.47,3.01h-.98c-.08-1.14-.86-1.94-2.02-2.02V0c1.58-.07,3.07,1.36,3,3Z"/>
      <path class="cls-1" d="m12.54,0v1c-.54.03-1.02.21-1.41.6-.39.39-.57.86-.6,1.41h-.98C9.43,1.69,10.66-.01,12.54,0Z"/>
      <path class="cls-1" d="m8.49,3.01h-.99V0h.99v3.01Z"/>
      <path class="cls-1" d="m1.45,0h.99v.99h-.99V0Z"/>
      <path class="cls-1" d="m13.57,0h.99v.99h-.99V0Z"/>
    </g>
  </g>
</svg>