<?xml version="1.0" encoding="UTF-8"?>
<svg id="Layer_2" data-name="Layer 2" xmlns="http://www.w3.org/2000/svg" viewBox="0 0 16 19.76">
  <defs>
    <style>
      .cls-1 {
        fill: #00adb5;
      }
    </style>
  </defs>
  <g id="Layer_1-2" data-name="Layer 1">
    <g>
      <path class="cls-1" d="m13.37,0c.33.17.44.44.42.8-.02.4,0,.81,0,1.24h-.26c-3.5,0-7,0-10.49,0-.63,0-.81.29-.81.82,0,4.86,0,9.72,0,14.58,0,.09,0,.18,0,.29-.36,0-.69,0-1.02,0-.22,0-.45,0-.67-.01-.29-.02-.49-.24-.52-.53,0-.08,0-.15,0-.23C0,11.56,0,6.17,0,.77,0,.41.1.15.44,0h12.93Z"/>
      <path class="cls-1" d="m3.41,19.76V3.22h12.58c0,.07,0,.14,0,.21,0,5.2,0,10.4,0,15.61,0,.52-.21.73-.72.73-3.88,0-7.76,0-11.63,0h-.23Zm5.47-11.28c0-.09,0-.14,0-.2,0-.66,0-1.32,0-1.99,0-.42-.28-.67-.7-.63-.16.01-.32.03-.48.05-1.88.28-3.2,2.26-2.74,4.11.44,1.77,2,2.84,3.81,2.62,1.63-.2,2.93-1.69,2.93-3.34,0-.36-.23-.6-.6-.61-.3,0-.59,0-.89,0-.44,0-.87,0-1.33,0Zm.46-2.46c0,.44,0,.89,0,1.33,0,.44.23.66.66.67.34,0,.68,0,1.02,0,.54,0,1.08,0,1.62,0,.46,0,.69-.23.68-.69,0-.19-.02-.39-.06-.57-.34-1.59-1.63-2.67-3.26-2.74-.39-.02-.65.22-.66.61,0,.46,0,.93,0,1.39Zm-.31,8.95c1.31,0,2.62,0,3.93,0,.47,0,.75-.22.75-.59,0-.37-.28-.59-.74-.59-2.62,0-5.24,0-7.87,0-.09,0-.18,0-.27.02-.28.05-.47.29-.47.58,0,.28.19.51.46.56.09.02.19.02.29.02,1.3,0,2.61,0,3.91,0Zm0,2.25c1.36,0,2.71,0,4.07,0,.48,0,.77-.47.54-.87-.13-.22-.33-.3-.58-.3-2.04,0-4.09,0-6.13,0-.65,0-1.3,0-1.95,0-.24,0-.42.1-.54.31-.21.4.07.85.55.85,1.35,0,2.7,0,4.05,0Z"/>
      <path class="cls-1" d="m7.71,6.92c0,.07,0,.14,0,.21,0,.6,0,1.21,0,1.81,0,.49.22.7.71.7.6,0,1.2,0,1.79,0,.07,0,.14,0,.21,0-.15.81-1.01,1.66-2.18,1.65-1.1-.01-2.07-.92-2.17-1.97-.12-1.26.74-2.21,1.64-2.4Z"/>
      <path class="cls-1" d="m10.53,5.3c.7.13,1.44.88,1.53,1.54h-1.53v-1.54Z"/>
    </g>
  </g>
</svg>