<?xml version="1.0" encoding="UTF-8"?>
<svg id="Layer_2" data-name="Layer 2" xmlns="http://www.w3.org/2000/svg" viewBox="0 0 22.1 19.6">
  <defs>
    <style>
      .cls-1 {
        fill: #00adb5;
      }
    </style>
  </defs>
  <g id="Layer_1-2" data-name="Layer 1">
    <g>
      <path class="cls-1" d="m22.1,11.48c-.11.36-.24.7-.53.97-.27.25-.59.4-.95.46-.54.09-1.08.19-1.66.3,0-.11,0-.19,0-.28,0-1.49,0-2.98,0-4.47-.01-1.43-.96-2.6-2.35-2.92-.24-.05-.48-.07-.73-.07-4.27,0-8.53,0-12.8,0-.2,0-.28-.04-.3-.25-.04-.43-.2-.84-.12-1.28.13-.71.68-1.28,1.4-1.4,2.98-.52,5.95-1.04,8.93-1.56,1.87-.33,3.73-.65,5.6-.98.73-.13,1.59.47,1.77,1.27.17.79.3,1.59.44,2.39.31,1.75.62,3.5.93,5.26.11.61.21,1.22.32,1.82,0,.06.03.11.05.16v.56Z"/>
      <path class="cls-1" d="m0,13.92h.26c5.72,0,11.44,0,17.15,0,.21,0,.28.04.28.27-.01,1.2,0,2.4,0,3.6,0,.94-.56,1.62-1.45,1.79-.11.02-.23.02-.34.02-4.7,0-9.39,0-14.09,0-1.07,0-1.8-.73-1.8-1.81,0-1.21,0-2.42,0-3.62,0-.07,0-.14,0-.25Zm3.67,4.13c.47,0,.94.02,1.4,0,.17,0,.35-.08.49-.18.22-.16.27-.45.17-.7-.1-.25-.34-.41-.65-.41-.93,0-1.86,0-2.78,0-.43,0-.74.27-.74.64,0,.38.3.65.73.65.46,0,.92,0,1.38,0Z"/>
      <path class="cls-1" d="m17.68,9.71c0,.21,0,.4,0,.59,0,.69,0,1.38,0,2.07,0,.22-.05.28-.27.28-5.14,0-10.28,0-15.42,0H.02v-2.93h17.67Z"/>
      <path class="cls-1" d="m.01,8.39c-.01-.76.67-1.51,1.43-1.61.14-.02.29-.03.43-.03,4.64,0,9.28,0,13.91,0,.95,0,1.62.49,1.83,1.32.02.1.03.2.05.32H.01Z"/>
    </g>
  </g>
</svg>