<?xml version="1.0" encoding="UTF-8"?>
<svg id="Layer_2" data-name="Layer 2" xmlns="http://www.w3.org/2000/svg" viewBox="0 0 30 43.35">
  <defs>
    <style>
      .cls-1 {
        fill: #00adb5;
      }
    </style>
  </defs>
  <g id="Layer_1-2" data-name="Layer 1">
    <g>
      <path class="cls-1" d="m2.66,4.09c-.63,0-1.21,0-1.79,0C.21,4.08,0,3.88,0,3.21c0-.8,0-1.6,0-2.4C0,.23.23,0,.8,0,10.27,0,19.75,0,29.22,0c.55,0,.77.21.77.77,0,.85,0,1.7,0,2.55,0,.56-.21.76-.78.77-.61.01-1.22,0-1.89,0,0,.25,0,.45,0,.65,0,1.82.07,3.65-.27,5.45-.47,2.47-1.57,4.58-3.45,6.28-1.42,1.28-2.84,2.58-4.26,3.87-.97.89-.97,2.19.01,3.09,1.39,1.27,2.78,2.55,4.18,3.81,2.33,2.08,3.48,4.72,3.68,7.79.09,1.38.02,2.76.02,4.21.69,0,1.28,0,1.87,0,.66,0,.87.2.87.87,0,.82,0,1.63,0,2.45,0,.55-.23.77-.77.79-.08,0-.16,0-.24,0-9.32,0-18.64,0-27.95,0-.11,0-.22,0-.33,0-.46-.04-.69-.27-.7-.72-.01-.9-.01-1.79,0-2.69,0-.45.25-.69.7-.7.63,0,1.25,0,1.94,0,0-.25,0-.46,0-.67,0-1.82-.04-3.64.37-5.44.49-2.19,1.49-4.09,3.14-5.62,1.45-1.34,2.92-2.68,4.39-4,1.08-.98,1.09-2.27.01-3.26-1.61-1.47-3.25-2.92-4.81-4.45-1.74-1.72-2.65-3.89-2.9-6.29-.17-1.59-.14-3.2-.19-4.8,0-.18,0-.37,0-.61Zm23.28,35.12c0-1.34.05-2.63-.01-3.91-.14-2.85-1.19-5.29-3.38-7.2-1.37-1.2-2.7-2.45-4.04-3.68-1.61-1.48-1.61-3.59,0-5.07,1.36-1.25,2.73-2.51,4.11-3.75.89-.81,1.66-1.71,2.2-2.79.67-1.31,1.05-2.69,1.1-4.15.06-1.5.01-3,.01-4.51H4.05c0,1.59-.09,3.15.02,4.7.19,2.56,1.14,4.81,3.08,6.57,1.43,1.3,2.85,2.61,4.28,3.9,1.69,1.53,1.68,3.65,0,5.16-1.44,1.29-2.86,2.6-4.29,3.9-1.38,1.27-2.28,2.81-2.74,4.63-.52,2.02-.44,4.08-.41,6.13,0,.02.04.05.06.08h21.89Z"/>
      <path class="cls-1" d="m14.95,37.82c-2.64,0-5.28,0-7.92,0-.77,0-.93-.17-.91-.95.13-3.89,3.19-7.44,7.05-8.19,4.89-.95,9.45,2.02,10.52,6.89.1.46.14.93.17,1.4.05.64-.17.86-.81.86-2.7,0-5.4,0-8.1,0Z"/>
      <path class="cls-1" d="m11.77,11.62c1.53,0,2.76.29,3.98.68,1.12.35,2.27.62,3.46.55,1.03-.06,1.94-.48,2.84-.93.2-.1.39-.26.59-.28.25-.02.61,0,.75.15.14.16.19.58.07.75-.39.6-.81,1.2-1.32,1.7-1.61,1.59-3.27,3.13-4.91,4.68-.6.57-1,1.23-1.14,2.05-.11.67-.48.98-1.06.97-.61,0-1.02-.35-1.12-1-.12-.82-.52-1.45-1.11-2.01-1.77-1.67-3.52-3.37-5.27-5.06-.6-.58-.51-1,.25-1.35,1.35-.62,2.77-.89,4-.92Z"/>
      <path class="cls-1" d="m15.02,27.28c-.36,0-.67-.28-.67-.64,0-.35.3-.66.66-.64.38.01.61.22.64.61.03.37-.26.66-.63.67Z"/>
      <path class="cls-1" d="m14.98,24.73c-.36-.01-.65-.32-.63-.67.02-.36.34-.64.7-.61.38.04.59.26.6.65,0,.37-.29.64-.66.63Z"/>
    </g>
  </g>
</svg>