<svg id="Layer_2" data-name="Layer 2" xmlns="http://www.w3.org/2000/svg" viewBox="0 0 107.97 117.78">
    <defs>
        <style>
            .cls-1{fill:#fff}
        </style>
    </defs>
    <g id="Layer_1-2" data-name="Layer 1">
        <path class="cls-1" d="M25.44 99.16c-3.11-4.36-6.26-8.7-9.41-13.04-.11-.15-.28-.24-.48-.41-.16.31-.28.52-.38.74-4.65 9.33-9.29 18.66-13.94 27.99-.49.99-1.1 1.93-1.23 3.03.07.01.41.02.91.03h.08c2.39.04 8.38.08 10.34.25 3.25.28 5.45-1.1 6.93-3.74 2.51-4.5 4.88-9.08 7.26-13.64.16-.31.12-.92-.08-1.2ZM107.97 98.56h-7.87c-23.67.08-47.34.15-71.01.25-1.11 0-1.91-.34-2.54-1.21-2.91-4.01-5.83-8.01-8.73-12.02-.13-.18-.16-.44-.3-.83h66.64c-.39-.78-.67-1.35-.97-1.92-7.93-15.12-15.88-30.24-23.79-45.37-3.15-6.03-6.24-12.09-9.31-18.16-.2-.4-.22-1.07-.03-1.47 2.41-5.06 4.87-10.1 7.3-15.15.3-.63.44-1.33.72-1.97.12-.27.39-.48.59-.71.23.2.54.36.66.62 8.84 17.71 17.66 35.44 26.5 53.15 7.11 14.25 14.25 28.48 21.36 42.72.32.64.51 1.34.78 2.07Z"/>
    </g>
</svg>
